<svg width="22" height="18" viewBox="0 0 22 18" fill="none" xmlns="http://www.w3.org/2000/svg">
<g id="Icon">
<path fill-rule="evenodd" clip-rule="evenodd" d="M11.3514 0.95157C11.8201 0.48294 12.5799 0.48294 13.0485 0.95157L20.2485 8.15157C20.7171 8.6202 20.7171 9.38 20.2485 9.84863L13.0485 17.0486C12.5799 17.5173 11.8201 17.5173 11.3514 17.0486C10.8828 16.58 10.8828 15.8202 11.3514 15.3516L16.5029 10.2001L2.59996 10.2001C1.93722 10.2001 1.39996 9.66284 1.39996 9.0001C1.39996 8.33736 1.93722 7.8001 2.59996 7.8001H16.5029L11.3514 2.64863C10.8828 2.18 10.8828 1.4202 11.3514 0.95157Z" fill="white"/>
<path fill-rule="evenodd" clip-rule="evenodd" d="M11.3514 0.95157C11.8201 0.48294 12.5799 0.48294 13.0485 0.95157L20.2485 8.15157C20.7171 8.6202 20.7171 9.38 20.2485 9.84863L13.0485 17.0486C12.5799 17.5173 11.8201 17.5173 11.3514 17.0486C10.8828 16.58 10.8828 15.8202 11.3514 15.3516L16.5029 10.2001L2.59996 10.2001C1.93722 10.2001 1.39996 9.66284 1.39996 9.0001C1.39996 8.33736 1.93722 7.8001 2.59996 7.8001H16.5029L11.3514 2.64863C10.8828 2.18 10.8828 1.4202 11.3514 0.95157Z" stroke="black" stroke-linecap="round" stroke-linejoin="round"/>
<path fill-rule="evenodd" clip-rule="evenodd" d="M11.3514 0.95157C11.8201 0.48294 12.5799 0.48294 13.0485 0.95157L20.2485 8.15157C20.7171 8.6202 20.7171 9.38 20.2485 9.84863L13.0485 17.0486C12.5799 17.5173 11.8201 17.5173 11.3514 17.0486C10.8828 16.58 10.8828 15.8202 11.3514 15.3516L16.5029 10.2001L2.59996 10.2001C1.93722 10.2001 1.39996 9.66284 1.39996 9.0001C1.39996 8.33736 1.93722 7.8001 2.59996 7.8001H16.5029L11.3514 2.64863C10.8828 2.18 10.8828 1.4202 11.3514 0.95157Z" stroke="black" stroke-opacity="0.2" stroke-linecap="round" stroke-linejoin="round"/>
<path fill-rule="evenodd" clip-rule="evenodd" d="M11.3514 0.95157C11.8201 0.48294 12.5799 0.48294 13.0485 0.95157L20.2485 8.15157C20.7171 8.6202 20.7171 9.38 20.2485 9.84863L13.0485 17.0486C12.5799 17.5173 11.8201 17.5173 11.3514 17.0486C10.8828 16.58 10.8828 15.8202 11.3514 15.3516L16.5029 10.2001L2.59996 10.2001C1.93722 10.2001 1.39996 9.66284 1.39996 9.0001C1.39996 8.33736 1.93722 7.8001 2.59996 7.8001H16.5029L11.3514 2.64863C10.8828 2.18 10.8828 1.4202 11.3514 0.95157Z" stroke="black" stroke-opacity="0.2" stroke-linecap="round" stroke-linejoin="round"/>
<path fill-rule="evenodd" clip-rule="evenodd" d="M11.3514 0.95157C11.8201 0.48294 12.5799 0.48294 13.0485 0.95157L20.2485 8.15157C20.7171 8.6202 20.7171 9.38 20.2485 9.84863L13.0485 17.0486C12.5799 17.5173 11.8201 17.5173 11.3514 17.0486C10.8828 16.58 10.8828 15.8202 11.3514 15.3516L16.5029 10.2001L2.59996 10.2001C1.93722 10.2001 1.39996 9.66284 1.39996 9.0001C1.39996 8.33736 1.93722 7.8001 2.59996 7.8001H16.5029L11.3514 2.64863C10.8828 2.18 10.8828 1.4202 11.3514 0.95157Z" stroke="black" stroke-opacity="0.2" stroke-linecap="round" stroke-linejoin="round"/>
<path fill-rule="evenodd" clip-rule="evenodd" d="M11.3514 0.95157C11.8201 0.48294 12.5799 0.48294 13.0485 0.95157L20.2485 8.15157C20.7171 8.6202 20.7171 9.38 20.2485 9.84863L13.0485 17.0486C12.5799 17.5173 11.8201 17.5173 11.3514 17.0486C10.8828 16.58 10.8828 15.8202 11.3514 15.3516L16.5029 10.2001L2.59996 10.2001C1.93722 10.2001 1.39996 9.66284 1.39996 9.0001C1.39996 8.33736 1.93722 7.8001 2.59996 7.8001H16.5029L11.3514 2.64863C10.8828 2.18 10.8828 1.4202 11.3514 0.95157Z" stroke="black" stroke-opacity="0.2" stroke-linecap="round" stroke-linejoin="round"/>
<path fill-rule="evenodd" clip-rule="evenodd" d="M11.3514 0.95157C11.8201 0.48294 12.5799 0.48294 13.0485 0.95157L20.2485 8.15157C20.7171 8.6202 20.7171 9.38 20.2485 9.84863L13.0485 17.0486C12.5799 17.5173 11.8201 17.5173 11.3514 17.0486C10.8828 16.58 10.8828 15.8202 11.3514 15.3516L16.5029 10.2001L2.59996 10.2001C1.93722 10.2001 1.39996 9.66284 1.39996 9.0001C1.39996 8.33736 1.93722 7.8001 2.59996 7.8001H16.5029L11.3514 2.64863C10.8828 2.18 10.8828 1.4202 11.3514 0.95157Z" stroke="black" stroke-opacity="0.2" stroke-linecap="round" stroke-linejoin="round"/>
<path fill-rule="evenodd" clip-rule="evenodd" d="M11.3514 0.95157C11.8201 0.48294 12.5799 0.48294 13.0485 0.95157L20.2485 8.15157C20.7171 8.6202 20.7171 9.38 20.2485 9.84863L13.0485 17.0486C12.5799 17.5173 11.8201 17.5173 11.3514 17.0486C10.8828 16.58 10.8828 15.8202 11.3514 15.3516L16.5029 10.2001L2.59996 10.2001C1.93722 10.2001 1.39996 9.66284 1.39996 9.0001C1.39996 8.33736 1.93722 7.8001 2.59996 7.8001H16.5029L11.3514 2.64863C10.8828 2.18 10.8828 1.4202 11.3514 0.95157Z" stroke="black" stroke-opacity="0.2" stroke-linecap="round" stroke-linejoin="round"/>
<path fill-rule="evenodd" clip-rule="evenodd" d="M11.3514 0.95157C11.8201 0.48294 12.5799 0.48294 13.0485 0.95157L20.2485 8.15157C20.7171 8.6202 20.7171 9.38 20.2485 9.84863L13.0485 17.0486C12.5799 17.5173 11.8201 17.5173 11.3514 17.0486C10.8828 16.58 10.8828 15.8202 11.3514 15.3516L16.5029 10.2001L2.59996 10.2001C1.93722 10.2001 1.39996 9.66284 1.39996 9.0001C1.39996 8.33736 1.93722 7.8001 2.59996 7.8001H16.5029L11.3514 2.64863C10.8828 2.18 10.8828 1.4202 11.3514 0.95157Z" stroke="black" stroke-opacity="0.2" stroke-linecap="round" stroke-linejoin="round"/>
</g>
</svg>
